# xmcd
#
# Track frame offsets:
#	150
#	16071
#	33612
#	51614
#	67760
#	82033
#	98661
#	117127
#	130599
#	145143
#
# Disc length: 2241 seconds
#
# Revision: 0
# Processed by: cddbd v1.5.2PL0 Copyright (c) Steve Scherf et al.
# Submitted via: audiograbber 1.83.01
#
DISCID=7e08bf0a
DTITLE=Nikki Lane - Highway Queen
DYEAR=2017
DGENRE=Country
TTITLE0=700,000 Rednecks
TTITLE1=Highway Queen
TTITLE2=Lay You Down
TTITLE3=Jackpot
TTITLE4=Companion
TTITLE5=Big Mouth
TTITLE6=Foolish Heart
TTITLE7=Send the Sun
TTITLE8=Muddy Waters
TTITLE9=Forever Lasts Forever
EXTD=
EXTT0=
EXTT1=
EXTT2=
EXTT3=
EXTT4=
EXTT5=
EXTT6=
EXTT7=
EXTT8=
EXTT9=
PLAYORDER=
